<svg version="1.0" xmlns="http://www.w3.org/2000/svg" width="806.667" height="1066.667" viewBox="0 0 605 800">
  <path fill="green" d="M472 2c-3 1.1-9.4 2.9-14.1 3.9-11.3 2.6-18.5 5.6-29.4 12.4-27.6 17.1-48.7 41.4-68.7 78.7-17.9 33.4-27.7 51.1-36.8 66-28.4 46.7-45 75.8-73 128.5-11.3 21.2-27.5 50.4-32.8 59-18.8 30.7-46.6 71.1-71.5 104-9.4 12.3-20 24.7-33.6 39-6.8 7.1-16.9 18.2-22.3 24.5-10.4 12-34.6 43.7-43.8 57.5-11.3 16.9-12.8 19.1-15.5 24-6.4 11.2-9.5 17.3-12.1 24-1.5 3.8-3 7.4-3.4 8-1.4 1.8-6.8 19.9-8.8 29.5-3.3 15.1-4.5 30-3.9 46 .4 8 1.1 15.8 1.7 17.5.5 1.6 2 6.3 3.2 10.4 3.6 12.2 13.1 24.9 25.3 33.6 11.4 8.1 30.5 17 46.5 21.5 4.1 1.2 8.6 2.5 10 3 1.4.5 6.3 1.6 11 2.5 4.7.8 9.9 1.8 11.5 2.2 1.7.4 10.7.7 20 .6 32.8 0 66.2-8.6 100.5-25.8 18.3-9.2 35.9-23.6 69.7-57.2 33.7-33.5 88.9-93.7 98.3-107.3 12.2-17.7 33.3-52 63.6-103.5 15.3-26.2 25.9-46.2 32.8-62.3 9.3-21.7 17.5-39.4 25.7-55.6 5-9.8 13.1-27.4 18-39 4.9-11.6 9.4-22 9.8-23.1.5-1.1 2.9-6.5 5.4-12 2.4-5.5 6.7-15.2 9.5-21.5 5.4-12.2 11.9-29 14.8-38 .9-3 2-6 2.5-6.5.4-.6 2.3-6.4 4.4-13 2-6.6 4-12.9 4.5-14 1.7-3.9 5.6-19 10.6-41.5 2.4-10.3 3-45 1-59-.8-6.3-1.8-12.4-2-13.5-.3-1.1-1.3-5.4-2.2-9.5-4.2-20.1-22.1-46-42.3-61.4-16.5-12.5-38.7-24.2-57.1-30.1-3-1-6.1-2.2-6.8-2.8-2.5-2-14.4-1.8-20.2.3zm9.3 4.7c-.7.2-2.1.2-3 0-1-.3-.4-.5 1.2-.5 1.7 0 2.4.2 1.8.5zm10 0c-.7.2-2.1.2-3 0-1-.3-.4-.5 1.2-.5 1.7 0 2.4.2 1.8.5zM474.5 8c-1.1.5-2.7.9-3.5.9-.9 0-.8-.4.5-.9 1.1-.5 2.7-.9 3.5-.9.9 0 .8.4-.5.9zM497 8c1.8 1.2.2 1.2-2.5 0-1.3-.6-1.5-.9-.5-.9.8 0 2.2.4 3 .9zm-42.3 5.6c-.3.3-1.2.4-1.9.1-.8-.3-.5-.6.6-.6 1.1-.1 1.7.2 1.3.5zm61.3 1.9c1.4.8 2.1 1.4 1.5 1.4-.5 0-2.1-.6-3.5-1.4-1.4-.8-2-1.4-1.5-1.4.6 0 2.1.6 3.5 1.4zM444.5 17c-.3.5-1.2 1-1.8 1-.7 0-.6-.4.3-1 1.9-1.2 2.3-1.2 1.5 0zm77.5 1c.8.5 1.1 1 .5 1-.5 0-1.7-.5-2.5-1s-1-1-.5-1c.6 0 1.7.5 2.5 1zm-81 .5c0 .2-1 .9-2.2 1.5-2.2 1.1-2.2 1-.4-.4 2.1-1.7 2.6-1.9 2.6-1.1zm25.6 3c2.9.9 6.5 1.3 9 .9 4.5-.6 8 1.6 7 4.3-.3.8-.6 1.8-.6 2.3 0 .4-1.8 1.5-4.1 2.4-2.2.9-5.2 2.9-6.5 4.5-1.4 1.8-3.8 3.1-6.1 3.6-2 .3-7.6 2.4-12.4 4.6-10.4 4.7-14.2 4.9-18.8 1.1l-3.4-2.8 3.4-2.9c6.6-5.9 9.7-9.7 10.5-12.8 1.8-6.1 11.5-8.4 22-5.2zm-33.6 2c0 .2-1 .9-2.2 1.5-2.2 1.1-2.2 1-.4-.4 2.1-1.7 2.6-1.9 2.6-1.1zm101.6 1.1c1.8 1.4 1.8 1.4-.6.3-3.1-1.4-3.6-1.9-2.4-1.9.6 0 1.9.7 3 1.6zm6.9 4.2c-.3.3-1.1 0-1.8-.7-.9-1-.8-1.1.6-.5 1 .3 1.5.9 1.2 1.2zm-117.5.7c-.7.8-1.8 1.5-2.4 1.5-.6 0-.2-.7.8-1.5 2.5-1.9 3.2-1.9 1.6 0zm-4 2.9c0 .2-.7.9-1.5 1.6-1.3 1.1-1.4 1-.9-.4.5-1.4 2.4-2.3 2.4-1.2zm133 4.2c0 .2-.9 0-2-.6s-2-1.3-2-1.6c0-.2.9 0 2 .6s2 1.3 2 1.6zm-141.5 3c-9 8.2-10.2 9-3.3 2.1 3.7-3.7 7.1-6.7 7.5-6.7.4 0-1.5 2.1-4.2 4.6zm93.7 3c2.4.9 5.7 3 7.4 4.6 3.3 3.1 10.3 15.7 12.4 22.3.7 2.2 1.5 4.4 1.8 5 .3.5.7 1.6.8 2.5 0 .8.6 3.4 1.3 5.7.6 2.3 1.1 4.5 1 5-.1.4.3 2.1.9 3.6 2.1 5 1.2 5.3-1.6.6-5.2-8.9-10.8-15.2-19.7-22.6-12.4-10.3-23.4-15.3-43-19.8l-3-.7 4-1.5c13.5-5.1 17.4-6 25.2-6.2 5.6-.1 9.5.4 12.5 1.5zm59.8 4.1 5.5 5.7-5.6-4.9c-4.9-4.3-6.8-6.5-5.6-6.5.1 0 2.7 2.6 5.7 5.7zm-165.7 4.8c-.3.9-.8 1.4-1 1.1-.3-.3-.2-.9.2-1.5.9-1.6 1.5-1.3.8.4zm73.2 3.5c22 5.9 39.4 17.9 50.9 35.1 6.5 9.8 10 25 6.2 26.5-2.9 1.1-5.5-1.8-10.2-11.2-10.2-20.7-20.6-30.2-40.5-36.8-8.9-3-27.3-5-37.1-4-5.9.6-6.9.4-7.4-1.1-1-2.5.6-4.6 5.4-7.3 8.3-4.6 18.2-5 32.7-1.2zm-76.9.8c-1.7 1.6-1.8 1.6-.5-.5.7-1.2 1.5-2 1.8-1.7.3.2-.3 1.2-1.3 2.2zm177.5-1.1c1.3 1.6 1.2 1.7-.3.4-1-.7-1.8-1.5-1.8-1.7 0-.8.8-.3 2.1 1.3zM431.8 57c-.7 1-1.4 1.7-1.7 1.5-.4-.4 1.8-3.5 2.5-3.5.2 0-.1.9-.8 2zm-40.5 4.4c-1 1.3-2 2.2-2.2 2-.4-.4 2.9-4.4 3.6-4.4.2 0-.4 1.1-1.4 2.4zm187.2-.4c1 1.1 1.6 2 1.3 2-.3 0-1.3-.9-2.3-2-1-1.1-1.6-2-1.3-2 .3 0 1.3.9 2.3 2zm3 4c.3.5.1 1-.4 1-.6 0-1.1-.5-1.1-1 0-.6.2-1 .4-1 .3 0 .8.4 1.1 1zm-122.2 4.1c27.5 2.4 44.5 13.4 55.6 36.3 5.4 11.2 9.4 15.6 14.2 15.6 1.6 0 2.9.4 2.9 1 0 .5-.5 1-1.1 1-.5 0-.8.4-.5.9.3.4-.3 3.9-1.4 7.7-1.1 3.8-2.2 7.8-2.5 8.8-.2 1.1-.9 2.4-1.5 3-.5.5-1 1.9-1 3-.1 1.4-.9.3-2.5-2.8-2.6-5.3-8.2-11.6-13.2-14.7-5.8-3.6-17.1-6.2-27.4-6.3-8.9-.1-10.1.2-15.6 3l-6 3.1-.6-5.9c-.7-8-4.7-15.7-10.8-21.1-6.6-5.8-18.1-12.3-24.4-13.8-7.8-1.8-8.3-2-6.5-2.7.8-.3 3.5-2.6 6-5.1 2.5-2.5 6-5.8 7.9-7.4 1.9-1.5 3.1-2.8 2.5-2.9-.5-.1 2-.4 5.6-.8 3.6-.4 7-.7 7.5-.8.6-.1 6.3.3 12.8.9zm128.3 6c1.4 2.8 2.4 5.3 2.2 5.5-.2.2-1.6-2.1-3.1-5.1-1.5-3-2.5-5.5-2.2-5.5.3 0 1.6 2.3 3.1 5.1zM379 79c0 .5-.5 1-1.1 1-.5 0-.7-.5-.4-1 .3-.6.8-1 1.1-1 .2 0 .4.4.4 1zm-4.5 7c-.9 1.6-1.8 3-2.1 3-.2 0 .2-1.4 1.1-3 .9-1.7 1.8-3 2.1-3 .2 0-.2 1.3-1.1 3zm36.8.7c-.7.2-1.9.2-2.5 0-.7-.3-.2-.5 1.2-.5s1.9.2 1.3.5zm19.6 8.3c9.2 4.7 18.2 12.4 21.4 18.4 1.6 3.1 2.2 5.9 2.2 11.6 0 6.6-.4 8.3-3.5 14.4-3.9 7.6-13.8 18.3-19.5 21-4.1 2-16.2 2.3-22.6.6-5.8-1.5-12.8-6.1-17.9-11.6-4.8-5.2-5.6-7.2-7.1-16.4-2.1-13.5 1.8-24.1 12.5-33.7 7-6.3 11.6-8.3 19.7-8.3 5.8 0 7.7.5 14.8 4zM371 92.4c0 .2-.8 1-1.7 1.7-1.6 1.3-1.7 1.2-.4-.4 1.3-1.6 2.1-2.1 2.1-1.3zm24 1.9c0 .2-1.7 1.9-3.7 3.8l-3.8 3.4 3.4-3.8c3.3-3.4 4.1-4.2 4.1-3.4zm200.7 2.9c-.3.8-.6.5-.6-.6-.1-1.1.2-1.7.5-1.3.3.3.4 1.2.1 1.9zm-228.6 1.1c-1 .9-1.1.8-.5-.6.3-1 .9-1.5 1.2-1.2.3.3 0 1.1-.7 1.8zm167.8 4.7c0 1-.3.8-.9-.5-1.2-2.7-1.2-4.3 0-2.5.5.8.9 2.2.9 3zm61.8-.8c-.3.7-.5.2-.5-1.2s.2-1.9.5-1.3c.2.7.2 1.9 0 2.5zm-231.6.1c-1 .9-1.1.8-.5-.6.3-1 .9-1.5 1.2-1.2.3.3 0 1.1-.7 1.8zm232.6 6.4c-.3 1-.5.4-.5-1.2 0-1.7.2-2.4.5-1.8.2.7.2 2.1 0 3zm-214.4-.2c-.3.9-.8 1.4-1 1.1-.3-.3-.2-.9.2-1.5.9-1.6 1.5-1.3.8.4zM360 111c-.6 1.1-1.3 2-1.6 2-.2 0 0-.9.6-2s1.3-2 1.6-2c.2 0 0 .9-.6 2zm238.7 5.2c-.2 1.3-.4.5-.4-1.7-.1-2.2.1-3.2.4-2.3.2 1 .2 2.8 0 4zm-241.6.1c-1 .9-1.1.8-.5-.6.3-1 .9-1.5 1.2-1.2.3.3 0 1.1-.7 1.8zm22.6 3.9c-.3.7-.5.2-.5-1.2s.2-1.9.5-1.3c.2.7.2 1.9 0 2.5zm-24.6.1c-1 .9-1.1.8-.5-.6.3-1 .9-1.5 1.2-1.2.3.3 0 1.1-.7 1.8zm244.6 5.9c-.2 1.3-.4.3-.4-2.2s.2-3.5.4-2.3c.2 1.3.2 3.3 0 4.5zm-246.6-1.9c-1 .9-1.1.8-.5-.6.3-1 .9-1.5 1.2-1.2.3.3 0 1.1-.7 1.8zm145.9 5.2c7 2.3 9 3.4 13.1 7.6 11.7 12 12.5 31.6 1.9 45.6-10.9 14.4-26.6 18-43.6 9.8-21.5-10.3-28-30.3-16.5-50.4 8.8-15.4 23.2-19.5 45.1-12.6zM349 132c0 .5-.5 1-1.1 1-.5 0-.7-.5-.4-1 .3-.6.8-1 1.1-1 .2 0 .4.4.4 1zm30.7 3.7c-.3 1-.5.4-.5-1.2 0-1.7.2-2.4.5-1.8.2.7.2 2.1 0 3zm221 13.5c-.2 3.5-.3.9-.3-5.7 0-6.6.1-9.4.3-6.3.2 3.2.2 8.6 0 12zm-256.2-9.3c-2.1 4.3-2.9 3.9-.8-.4.9-1.9 1.8-3.3 2.1-3.1.2.2-.4 1.8-1.3 3.5zm38.7 5.6c2.7 5.2 12 13.7 18.3 16.6 6.7 3.2 14.5 5 17.8 4.1 1.6-.4.9.9-3 5.7-12.6 15.5-14 30.1-3 30.1 5.1 0 25.5-13.3 25.7-16.8.1-3.1-3.3-2.1-9.2 2.9-6.8 5.7-16 10.4-18.3 9.5-2.5-.9-1.8-7.6 1.5-13.4 4.8-8.8 13-18 16.7-18.7 1.7-.4 5.8-2.8 9.1-5.5l5.9-4.8-.5 4.3c-2.2 20.3 20.4 41.5 44.5 41.5h6.3l-1.4 3.4-1.5 3.5 2.6-1c4.7-1.8 3.4-.3-2.2 2.6-4.8 2.4-6.4 2.7-11.3 2.2-7.2-.6-15.8-4.7-22.1-10.3-5.3-4.8-7.1-5.4-7.1-2.5 0 2.8 8.3 9.9 15.8 13.4 6 2.9 7.7 3.2 15.8 3.2h9.1l-1.4 2.2c-.8 1.2-1.5 3.7-1.6 5.7l-.2 3.5-2.2-2.1c-2.1-1.9-4.3-1.8-4.3.4 0 .5.8 2.2 1.9 3.6 1 1.5 2.2 3.8 2.6 5.2.7 2.4.7 2.4-.9.5-1.5-2-1.5-2-1.6.3 0 1.3.5 3.3 1.1 4.5.7 1.2-.7.1-3-2.5-12-13.5-29.8-21.4-53.8-23.8-17.1-1.7-16.7-1.5-23.7-8.1-7.1-6.6-28.2-29.9-27.9-30.8.2-.7-1.5-.9-11.3-1.7-5.9-.5-7.8-.2-11 1.4-8.1 4.2-13.3 12-14.1 21.2-1.1 11.3 6.1 31.3 15.9 44.2 5.6 7.4 9.4 10.7 20.8 18.4 4.1 2.8 10 6.8 13 8.9 6.2 4.3 20.7 11.3 28.9 14 3 1 9.9 2.5 15.3 3.4l9.9 1.6-3.8 4.2c-2.1 2.3-5.9 7-8.4 10.5-6 8.3-29.9 44.4-29.9 45.2 0 .3-1.9 3.3-4.1 6.6-6.5 9.4-20 21.6-36.7 33.2-11 7.7-27.1 21.6-32.2 27.9-15.3 19-32.4 52.4-34.6 67.8-2.4 17.3-24.1 47.4-41.8 58.1-14.4 8.7-21.6 15.8-23.8 23.5-1.2 3.9-5.4 9.7-15.3 20.6-2.7 3-5.7 6.4-6.6 7.5-2.9 3.7-17.1 19.9-18.3 20.9-.6.5-4.5 4.8-8.6 9.5-4.1 4.6-9.4 10.5-11.6 13-2.3 2.5-5.5 6.1-7 7.9-1.6 1.9-3.8 4.4-4.9 5.6-1.1 1.2-5.8 6.3-10.4 11.4-9.6 10.5-20.5 18.6-30.3 22.5-9.3 3.7-22.4 4-28.6.8-8.6-4.6-10.6-14.2-5.6-27 4.7-11.9 12.5-27.4 17.7-35.2 4.8-7.1 13.9-19.2 16.1-21.6.6-.6 4.7-5.5 9.1-11 4.4-5.4 14.6-16.6 22.7-24.8 8.8-8.8 14.8-15.6 14.8-16.8 0-1-1.1-3-2.5-4.3-2-2.1-3.4-2.5-7.9-2.5-6.6 0-9.7 1.3-11.8 4.8-2.1 3.5-2.9 10.1-1.6 12.5.7 1.3.7 2.2-.1 3-.7.7-1.2.2-1.6-1.4-3-12.5 2.8-20.9 14.4-20.9 6.1 0 12.1 2.7 12.1 5.5 0 2.5 1.4 1.8 5.6-2.8 7.5-8 25.4-32.3 25.4-34.3 0-.4.6-1.5 1.3-2.3 1.1-1.3 10.5-21.4 14.6-31.2.6-1.3 2.4-4.7 4-7.4 1.6-2.8 3.9-6.8 5-9s3.2-5.4 4.7-7c1.4-1.7 3.9-4.8 5.4-7.1 3.1-4.4 6-7.9 16.2-19.2 3.7-4.1 8.2-9.7 10.1-12.6 4.8-7.3 10.8-16.2 13.7-20.5 1.4-2 5.9-8 10.2-13.4 7.6-9.7 13.1-19.3 12.7-22.5-.6-4.7 3.4-15 11.9-31.2 4.2-8 8.7-17.7 10-21.5 2.3-7.3 8.6-30.8 9.6-36 .3-1.7 1.4-7.3 2.5-12.5 1.7-8.2 2.6-15.1 4.7-37 .3-2.4.6-4.6.8-4.7.2-.2 1.6 3.1 3.1 7.2 1.5 4.2 5 11 7.7 15.2 4.9 7.6 20.1 23.3 22.4 23.3 3.6 0 2-2.9-5.8-10.4-4.6-4.4-9.9-10.3-11.7-12.9-4.3-6.3-9.6-17.9-11-24.2-1.2-5.3-1.2-21.9 0-17.5.6 2.3.7 2.4 1.3.5.4-1.1 1.6-3.7 2.6-5.7 1.1-2 2-4.4 2-5.2 0-.9.5-1.6 1.2-1.6.6 0 .8-.3.5-.7-.4-.3-.2-1.2.5-2 .6-.7.8-1.6.5-1.9-.3-.3-1.8 1.3-3.3 3.5-2.4 3.8-4.5 5.8-2.8 2.8 2.7-4.8 5.7-7.7 6.8-6.8.9.8 1.2.5 1.2-1.2-.1-1.7 1.1-2.8 4.9-4.7 9.3-4.6 19.9-2.8 31.1 5.2 4.4 3.1 4.6 3.2 5.9 1.4 1.3-1.7.8-2.2-5.2-6.2-8.6-5.7-15.9-7.8-24-7.1l-6.3.6 6.9-6.5c3.8-3.5 9.3-8.3 12.2-10.6 3-2.4 5.8-4.9 6.3-5.8.8-1.2 1.1-1 1.6 1 .4 1.4 1.4 3.9 2.2 5.5zm-46.2 7.3c0 .5-.7 1.7-1.5 2.8-1.4 1.8-1.4 1.7-.4-.9 1.2-2.7 1.9-3.4 1.9-1.9zm189.8 8.8-.3 4.9-.5-5.7c-.3-3.1-.1-5.3.3-4.9.5.5.7 3 .5 5.7zm72.9 3.1c-.3 1-.5.2-.5-1.7s.2-2.7.5-1.8c.2 1 .2 2.6 0 3.5zM350 163.5c0 .2-1 .9-2.2 1.5-2.2 1.1-2.2 1-.4-.4 2.1-1.7 2.6-1.9 2.6-1.1zm-8.1 6.2c-1.8 2.1-3.7 4.2-4.1 4.7-.5.6-.8.7-.8.3 0-.9 7-8.7 7.8-8.7.3 0-1 1.7-2.9 3.7zm256.8 2c-.3 1-.5.4-.5-1.2 0-1.7.2-2.4.5-1.8.2.7.2 2.1 0 3zM326 171c-.6 1.1-1.3 2-1.6 2-.2 0 0-.9.6-2s1.3-2 1.6-2c.2 0 0 .9-.6 2zm199.7.2c-.3.8-.6.5-.6-.6-.1-1.1.2-1.7.5-1.3.3.3.4 1.2.1 1.9zm-202.4 4.3c-.3.9-.8 1.4-1 1.1-.3-.3-.2-.9.2-1.5.9-1.6 1.5-1.3.8.4zm199.8 1.2c-1.2 2-1.4 1.4-.5-1.2.4-.9.9-1.4 1.1-1.1.3.2 0 1.3-.6 2.3zm74.6 1.5c-.3.7-.5.2-.5-1.2s.2-1.9.5-1.3c.2.7.2 1.9 0 2.5zm-278.6 4.1c-1 .9-1.1.8-.5-.6.3-1 .9-1.5 1.2-1.2.3.3 0 1.1-.7 1.8zm62.9 4.1c0 .3-1.3.6-2.9.6-3.3 0-4.6-2.2-3-5.1.9-1.9 1.1-1.8 3.4 1 1.4 1.6 2.5 3.2 2.5 3.5zm138-3.4c-.6 1.1-1.3 2-1.6 2-.2 0 0-.9.6-2s1.3-2 1.6-2c.2 0 0 .9-.6 2zm76.7.2c-.3.8-.6.5-.6-.6-.1-1.1.2-1.7.5-1.3.3.3.4 1.2.1 1.9zm-264 1c-.3.8-.6.5-.6-.6-.1-1.1.2-1.7.5-1.3.3.3.4 1.2.1 1.9zm263 4c-.3.7-.5.2-.5-1.2s.2-1.9.5-1.3c.2.7.2 1.9 0 2.5zm-264 0c-.3.8-.6.5-.6-.6-.1-1.1.2-1.7.5-1.3.3.3.4 1.2.1 1.9zm183.2 1.4c-1.8 2-4.3 4-5.4 4.6-1.1.6.3-1 3-3.5 6-5.5 7.2-6.1 2.4-1.1zM313 193c-.6 1.1-1.3 2-1.6 2-.2 0 0-.9.6-2s1.3-2 1.6-2c.2 0 0 .9-.6 2zm17.7 7.7c-.2 2.1-.4.6-.4-3.2 0-3.9.2-5.5.4-3.8.2 1.8.2 5 0 7zm59.5-6c2.1 2 3.8 4 3.8 4.4 0 .4-1.6 1.3-3.5 1.9-3 1-4 .9-6-.4-1.4-.9-2.5-2.1-2.5-2.7 0-1.5 2.9-6.9 3.7-6.9.4 0 2.4 1.7 4.5 3.7zm203.3 1.2c.3.5.1 1.2-.5 1.6-.5.3-1-.1-1-.9 0-1.8.6-2.1 1.5-.7zm-90.5 2.6c-1.4.8-2.9 1.4-3.5 1.4-.5 0 .1-.6 1.5-1.4 1.4-.8 3-1.4 3.5-1.4.6 0-.1.6-1.5 1.4zm-101.5 8c1.9 1.9 3.5 3.9 3.5 4.5 0 .5-1.8 2.2-4 3.6-3.6 2.4-4.3 2.6-6.5 1.4-1.4-.7-2.5-2.2-2.5-3.3 0-2.3 4-9.7 5.2-9.7.5 0 2.4 1.6 4.3 3.5zm189.2-1.3c-.3.8-.6.5-.6-.6-.1-1.1.2-1.7.5-1.3.3.3.4 1.2.1 1.9zm-286.9 3.3c-.6 1.4-1.3 2.3-1.5 2.1-.5-.5 1.5-4.6 2.2-4.6.3 0-.1 1.1-.7 2.5zm285.9.7c-.3.8-.6.5-.6-.6-.1-1.1.2-1.7.5-1.3.3.3.4 1.2.1 1.9zm-91.7 3.3c0 .2-1 .9-2.2 1.5-2.2 1.1-2.2 1-.4-.4 2.1-1.7 2.6-1.9 2.6-1.1zm-84.7 2.2c1.4.5 1.7 1.2 1.2 3.2-.9 3.8-2.9 5.5-5.8 4.7-3.2-.8-3.8-2.5-2.1-6.5 1.1-2.6 1.8-3.2 3.1-2.6 1 .4 2.6 1 3.6 1.2zm174.4 1.5c-.3.8-.6.5-.6-.6-.1-1.1.2-1.7.5-1.3.3.3.4 1.2.1 1.9zM299 217c0 .5-.5 1-1.1 1-.5 0-.7-.5-.4-1 .3-.6.8-1 1.1-1 .2 0 .4.4.4 1zm132.8.5c.7.6-4.8 8.5-6 8.5-2.4 0-4.8-3.4-4.8-6.8v-3.5l5.2.7c2.9.4 5.4.9 5.6 1.1zm11.5 1.6c4.3 1.2 4.4 1.5 1.5 4.6-2.9 3.1-5.4 2.9-7.3-.7-2.7-5.3-1.7-6 5.8-3.9zm-147.2 2.2c-1 .9-1.1.8-.5-.6.3-1 .9-1.5 1.2-1.2.3.3 0 1.1-.7 1.8zm162.1 2.3c2.1 1.1 2.7 1.9 2 2.6-1.2 1.2-6.2-1.4-6.2-3.2 0-1.3.6-1.3 4.2.6zm-165.1 3.1c-1.2 2-1.4 1.4-.5-1.2.4-.9.9-1.4 1.1-1.1.3.2 0 1.3-.6 2.3zm64.9.3c1.9 1 3.6 6.7 2.8 9.2-.4 1.2-5.1-5.2-6.5-8.8-.6-1.6 1-1.8 3.7-.4zm133.8 3.5c-.3.3-.9-.2-1.2-1.2-.6-1.4-.5-1.5.5-.6.7.7 1 1.5.7 1.8zM305 236c0 .5-.9 1-2.1 1-3.5 0-14.6 5.8-17.3 9.1-3.6 4.2-3.6 11.1-.1 16.3 2.6 3.8 3.1 5.6 1.7 5.6-.5 0-2.1-2.5-3.6-5.5-2.8-5.5-3-8.7-1.1-15.5.5-2 .5-2.2-.5-1-.8 1-1 1.1-.8.2.2-.8.6-1.2 1-1 .3.2 1.7-.7 3-1.8 5.5-5.1 19.8-10.4 19.8-7.4zm66.5 2c.3.6.3 3.1-.1 5.6l-.7 4.6-3.9-3.8-3.8-3.9 2.2-1.7c2.6-2 5.4-2.3 6.3-.8zm-86.4 2.3c-1 .9-1.1.8-.5-.6.3-1 .9-1.5 1.2-1.2.3.3 0 1.1-.7 1.8zm98.5 4.8c.7 1.2.8 9.9.1 10.6-.8.7-9.7-5.1-9.7-6.4 0-1.6 4.9-5.3 7.1-5.3 1 0 2.1.5 2.5 1.1zm105.1 5.6c-.3 1-.5.2-.5-1.7s.2-2.7.5-1.8c.2 1 .2 2.6 0 3.5zm87.3 0c-1.1 1.7-1.1 1.7-.6 0 .3-1 .6-2.4.7-3 0-.9.2-.9.5 0 .3.7 0 2-.6 3zm-83.3 3.5c-.2 1.3-.4.3-.4-2.2s.2-3.5.4-2.3c.2 1.3.2 3.3 0 4.5zm6 .5c-.3 1-.5.2-.5-1.7s.2-2.7.5-1.8c.2 1 .2 2.6 0 3.5zM279 252c0 .5-.5 1-1.1 1-.5 0-.7-.5-.4-1 .3-.6.8-1 1.1-1 .2 0 .4.4.4 1zm117.4.6c1.2.5 1.6 2.1 1.6 7 0 3.5-.3 6.4-.7 6.4-.5 0-3-1.7-5.7-3.7l-5-3.6 3.7-3.3c4-3.7 3.9-3.7 6.1-2.8zm92.3 7.1c-.3 1-.5.4-.5-1.2 0-1.7.2-2.4.5-1.8.2.7.2 2.1 0 3zm4-.5c-.3.8-.6.5-.6-.6-.1-1.1.2-1.7.5-1.3.3.3.4 1.2.1 1.9zm-81.9 3c1.3 1.8 2.5 10.8 1.4 10.8-1.6 0-10.1-4-10.7-5.1-.8-1.1 5.1-6.9 7-6.9.7 0 1.7.6 2.3 1.2zm86.9 1c-.3.8-.6.5-.6-.6-.1-1.1.2-1.7.5-1.3.3.3.4 1.2.1 1.9zm-9.7.1c0 .7-.7 2.2-1.5 3.3-1.3 1.7-1.3 1.6-.3-1.4 1.3-3.4 1.8-4 1.8-1.9zm8.7 3.9c-.3.8-.6.5-.6-.6-.1-1.1.2-1.7.5-1.3.3.3.4 1.2.1 1.9zm-226.6 1.5c-1.2 2-1.4 1.4-.5-1.2.4-.9.9-1.4 1.1-1.1.3.2 0 1.3-.6 2.3zm157.2-1c.8 1 1.8 4 2.2 6.7.7 4.5.6 4.9-1.1 4.4-1.1-.3-4-1.2-6.6-1.9-2.7-.7-4.8-1.9-4.8-2.6 0-1.7 5.9-8.3 7.4-8.3.7 0 2 .8 2.9 1.7zm59.7 5.4c-3.2 5.8-17.9 16-23 15.9-.8-.1.7-1 3.4-2 6.9-2.7 13.5-7.4 17-12.1 3.3-4.3 4.3-5 2.6-1.8zm7-1.3c0 .5-.7 1.7-1.5 2.8-1.4 1.8-1.4 1.7-.4-.9 1.2-2.7 1.9-3.4 1.9-1.9zm-227.9 2.9c-1.2 2-1.4 1.4-.5-1.2.4-.9.9-1.4 1.1-1.1.3.2 0 1.3-.6 2.3zm173.2-2c.2.5.8 2.5 1.1 4.7l.7 3.8-3.8-.7c-4.6-.8-4.6-.8-3.8-3.4 1.1-3.7 4.7-6.3 5.8-4.4zm43.1.6c-.2.7-1.4 1.9-2.7 2.6-2.1 1.3-2.1 1.2.2-1.3 2.7-2.9 3.3-3.2 2.5-1.3zm-219.9 9c-.8 2.1-1.8 3.7-2 3.7-.3 0 .2-1.6 1-3.6s1.5-3.9 1.5-4.2c0-.3.2-.3.5 0s-.2 2.1-1 4.1zm214-3.3c-.3.5-1.2 1-1.8 1-.7 0-.6-.4.3-1 1.9-1.2 2.3-1.2 1.5 0zm13.5-.7c0 .2-1 1.2-2.2 2.3l-2.3 1.9 1.9-2.3c1.8-2.1 2.6-2.7 2.6-1.9zm-23.3 5.3c-.3.3-1.2.4-1.9.1-.8-.3-.5-.6.6-.6 1.1-.1 1.7.2 1.3.5zm17.1 1.4c-.7 1.1-1.7 2-2.2 2-.5 0-.1-.9.9-2s2-2 2.2-2c.2 0-.2.9-.9 2zm-31 .7c-1 .2-2.6.2-3.5 0-1-.3-.2-.5 1.7-.5s2.7.2 1.8.5zm25.3 3.3c-1.3 1.1-2.8 2-3.5 2-.6 0 .3-.9 1.9-1.9 3.9-2.5 4.6-2.5 1.6-.1zm-31.4.6c-.3.3-1.2.4-1.9.1-.8-.3-.5-.6.6-.6 1.1-.1 1.7.2 1.3.5zm110.4 7.1c-1.1 2.1-2 3.5-2.1 3.1 0-1.2 3.3-7.8 3.8-7.4.2.2-.6 2.1-1.7 4.3zm-88.4-3.1c-.3.3-1.2.4-1.9.1-.8-.3-.5-.6.6-.6 1.1-.1 1.7.2 1.3.5zM444 295c.8.5 1.1 1 .5 1-.5 0-1.7-.5-2.5-1s-1-1-.5-1c.6 0 1.7.5 2.5 1zm20.7-.4c-.3.3-1.2.4-1.9.1-.8-.3-.5-.6.6-.6 1.1-.1 1.7.2 1.3.5zM248 308.9c-.5 1.1-1.5 2.3-2.2 2.7-.7.5-.8.2-.3-.7 2.1-3.7 4.4-5.5 2.5-2zm-3 4.9c0 .5-.7 1.7-1.5 2.8-1.4 1.8-1.4 1.7-.4-.9 1.2-2.7 1.9-3.4 1.9-1.9zm-4.9 9.5c-1 .9-1.1.8-.5-.6.3-1 .9-1.5 1.2-1.2.3.3 0 1.1-.7 1.8zm-6 10c-1 .9-1.1.8-.5-.6.3-1 .9-1.5 1.2-1.2.3.3 0 1.1-.7 1.8zm302 12.4c-1.2 2-1.4 1.4-.5-1.2.4-.9.9-1.4 1.1-1.1.3.2 0 1.3-.6 2.3zm-309.8.8c-.3.9-.8 1.4-1 1.1-.3-.3-.2-.9.2-1.5.9-1.6 1.5-1.3.8.4zm-4.7 8.3c-1.7 1.6-1.8 1.6-.5-.5.7-1.2 1.5-2 1.8-1.7.3.2-.3 1.2-1.3 2.2zm-2.8 5.1c-.7 1.2-1.6 2.1-2.1 2.1-.4 0 0-1.1 1-2.4 2.2-2.9 3-2.7 1.1.3zm-4.3 6.2c-.9 1.7-1.9 2.9-2.2 2.6-.5-.5 2.5-5.7 3.3-5.7.3 0-.3 1.4-1.1 3.1zm312.6-.4c-1.2 2-1.4 1.4-.5-1.2.4-.9.9-1.4 1.1-1.1.3.2 0 1.3-.6 2.3zm-1.8 3.8c-.3.9-.8 1.4-1 1.1-.3-.3-.2-.9.2-1.5.9-1.6 1.5-1.3.8.4zm-315.9 4.7c-1.9 3.2-6.4 9-6.4 8.4 0-.9 6.1-9.6 6.7-9.6.2 0 .1.6-.3 1.2zm311.7 3.1c-1 .9-1.1.8-.5-.6.3-1 .9-1.5 1.2-1.2.3.3 0 1.1-.7 1.8zm-321 11c-1.2 1.9-2.8 4-3.6 4.7-.8.7-.1-1 1.7-3.8 3.6-5.6 5.3-6.3 1.9-.9zm316-.6c-1.2 2-1.4 1.4-.5-1.2.4-.9.9-1.4 1.1-1.1.3.2 0 1.3-.6 2.3zm-3 7c-1.2 2-1.4 1.4-.5-1.2.4-.9.9-1.4 1.1-1.1.3.2 0 1.3-.6 2.3zM190 403c-1.2 1.6-2.4 3-2.6 3-.3 0 .4-1.4 1.6-3 1.2-1.7 2.4-3 2.6-3 .3 0-.4 1.3-1.6 3zm318.1 1.7c-1.2 2-1.4 1.4-.5-1.2.4-.9.9-1.4 1.1-1.1.3.2 0 1.3-.6 2.3zM187 407.3c0 .2-1 1.2-2.2 2.3l-2.3 1.9 1.9-2.3c1.8-2.1 2.6-2.7 2.6-1.9zm11.5 5.7c-.3.5-1.4 1-2.3 1-2.9 0-8.2 3.9-9.3 6.8-.8 2.1-.7 3.7.9 7.4 2.5 6 .8 6.4-1.8.5-2.8-6.2-.8-11.6 5.5-15 3.3-1.8 8-2.3 7-.7zm-17.5 3c0 .5-.5 1-1.1 1-.5 0-.7-.5-.4-1 .3-.6.8-1 1.1-1 .2 0 .4.4.4 1zm-11 15c-1.1 1.6-2.6 3.3-3.2 3.6-.7.4.1-.9 1.6-2.9 3.4-4.4 4.6-5 1.6-.7zm279.9 14.5c.1 2.7-.4 6.7-.9 8.7-1.3 4.4-6.8 9.4-11.6 10.3-3.5.6-11.4-1.2-11.4-2.7 0-1.1.7-1 4.6.4 4.4 1.6 10-.2 13.9-4.2 2.8-2.9 3-3.7 3.2-11.8.2-10.3.2-10.2 1.3-7.7.5 1.1.9 4.2.9 7zM161 443c-1.1 1.6-2.6 3.3-3.2 3.6-.7.4.1-.9 1.6-2.9 3.4-4.4 4.6-5 1.6-.7zm-4 5.4c0 .2-.8 1-1.7 1.7-1.6 1.3-1.7 1.2-.4-.4 1.3-1.6 2.1-2.1 2.1-1.3zm329.3 6.1c-.3.9-.8 1.4-1 1.1-.3-.3-.2-.9.2-1.5.9-1.6 1.5-1.3.8.4zM151 456c0 .5-.5 1-1.1 1-.5 0-.7-.5-.4-1 .3-.6.8-1 1.1-1 .2 0 .4.4.4 1zm-8 10c-.6 1.1-1.5 2-2 2-.6 0-.2-.9.7-2 1-1.1 1.9-2 2.1-2 .1 0-.2.9-.8 2zm336.4 1.5c-.9 1.4-1.8 2.5-2.1 2.5-.5 0 .5-1.8 2-3.8 1.7-2.2 1.8-1.3.1 1.3zm-340.2 3.7c-.7.7-1.2.8-1.2.2 0-1.4 1.2-2.6 1.9-1.9.2.3-.1 1.1-.7 1.7zM404 476c0 .5-.2 1-.4 1-.3 0-.8-.5-1.1-1-.3-.6-.1-1 .4-1 .6 0 1.1.4 1.1 1zm69.5 2c-.9 1.6-1.8 3-2.1 3-.2 0 .2-1.4 1.1-3 .9-1.7 1.8-3 2.1-3 .2 0-.2 1.3-1.1 3zm-340.2-.5c-.3.9-.8 1.4-1 1.1-.3-.3-.2-.9.2-1.5.9-1.6 1.5-1.3.8.4zm-2.3 2.8c0 .2-1 1.2-2.2 2.3l-2.3 1.9 1.9-2.3c1.8-2.1 2.6-2.7 2.6-1.9zm339 3.7c-.6 1.1-1.3 2-1.6 2-.2 0 0-.9.6-2s1.3-2 1.6-2c.2 0 0 .9-.6 2zm-352 10.3c0 .1-2.6 2.7-5.7 5.7l-5.8 5.5 5.5-5.8c5-5.3 6-6.2 6-5.4zm338.1 13c-1 .9-1.1.8-.5-.6.3-1 .9-1.5 1.2-1.2.3.3 0 1.1-.7 1.8zm-352.1 2c0 .2-1.5 1.6-3.2 3.3l-3.3 2.9 2.9-3.3c2.8-3 3.6-3.7 3.6-2.9zm350.3 1.2c-.3.9-.8 1.4-1 1.1-.3-.3-.2-.9.2-1.5.9-1.6 1.5-1.3.8.4zM452 515c-.6 1.1-1.3 2-1.6 2-.2 0 0-.9.6-2s1.3-2 1.6-2c.2 0 0 .9-.6 2zm-355 2.3c0 .2-1.5 1.6-3.2 3.3l-3.3 2.9 2.9-3.3c2.8-3 3.6-3.7 3.6-2.9zm349.9 6.1c-2.9 4.9-3.4 4.6-.9-.5 1.2-2.3 2.4-3.9 2.6-3.6.3.2-.5 2.1-1.7 4.1zm-358.8 4.3c-1.5 2.6-4.8 6.3-5.6 6.3-.6 0 5.7-7.9 6.3-8 .1 0-.2.8-.7 1.7zm-7 9c-.6 1-2.2 3.1-3.6 4.8-2.2 2.5-2.2 2.3.5-1.8 3-4.5 5.1-6.6 3.1-3zM434 545c-.6 1.1-1.3 2-1.6 2-.2 0 0-.9.6-2s1.3-2 1.6-2c.2 0 0 .9-.6 2zm-363 4.9c-2.9 4.2-3.6 3.9-.8-.3 1.3-1.9 2.4-3.3 2.6-3.1.3.2-.6 1.8-1.8 3.4zm359 2.5c0 .2-.8 1-1.7 1.7-1.6 1.3-1.7 1.2-.4-.4 1.3-1.6 2.1-2.1 2.1-1.3zm-362 2c0 .2-.8 1-1.7 1.7-1.6 1.3-1.7 1.2-.4-.4 1.3-1.6 2.1-2.1 2.1-1.3zm18.7 5.3c.3.8-.7.8-3.7.1-3.2-.8-4.9-.7-8.5.6-4.6 1.8-10.4 7.5-10.6 10.4-.2 3.3.3 6.7 1.3 8.7 1.6 3 6 7.5 7.5 7.5.7 0 1.3.4 1.3 1 0 3-6.8-1.8-10.3-7.2-2.2-3.5-2.2-10.2 0-13.9 2.3-3.9 8.5-8.1 13.1-8.9 4.4-.7 9.4.1 9.9 1.7zM65 558.4c0 .2-.8 1-1.7 1.7-1.6 1.3-1.7 1.2-.4-.4 1.3-1.6 2.1-2.1 2.1-1.3zm360 1.6c-.6 1.1-1.3 2-1.6 2-.2 0 0-.9.6-2s1.3-2 1.6-2c.2 0 0 .9-.6 2zm-3.2 5.5c-.6 1.4-1.3 2.3-1.5 2.1-.5-.5 1.5-4.6 2.2-4.6.3 0-.1 1.1-.7 2.5zm-363 1.5c-.7 1-1.4 1.7-1.7 1.5-.4-.4 1.8-3.5 2.5-3.5.2 0-.1.9-.8 2zm357.3 7.3c-1 .9-1.1.8-.5-.6.3-1 .9-1.5 1.2-1.2.3.3 0 1.1-.7 1.8zM414 578c-.6 1.1-1.3 2-1.6 2-.2 0 0-.9.6-2s1.3-2 1.6-2c.2 0 0 .9-.6 2zm-364.4 1.8c-1.8 1.6-1.8 1.6-.6-.6.6-1.3 1.4-2.1 1.8-1.8.3.4-.2 1.4-1.2 2.4zm358.8 6.7c-.9 1.4-1.8 2.5-2.1 2.5-.5 0 .5-1.8 2-3.8 1.7-2.2 1.8-1.3.1 1.3zM44 588.4c0 .2-.8 1-1.7 1.7-1.6 1.3-1.7 1.2-.4-.4 1.3-1.6 2.1-2.1 2.1-1.3zm-6 9.6c-1.1 2.2-2.3 4-2.5 4-.3 0 .4-1.8 1.5-4s2.3-4 2.5-4c.3 0-.4 1.8-1.5 4zm363.6-1.2c-1.7 1.6-1.8 1.6-.5-.5.7-1.2 1.5-2 1.8-1.7.3.2-.3 1.2-1.3 2.2zm-3.2 4.7c-.9 1.4-1.8 2.5-2.1 2.5-.5 0 .5-1.8 2-3.8 1.7-2.2 1.8-1.3.1 1.3zm-365 5c-.4.8-1.1 1.5-1.6 1.5-.6 0-.5-.6.2-1.5.7-.8 1.4-1.5 1.6-1.5.2 0 .1.7-.2 1.5zm359.1 2.3-2.8 2.7 2.4-3.1c1.3-1.7 2.6-3 2.8-2.7.3.2-.8 1.6-2.4 3.1zm-3.5 4.5c0 .2-1.5 1.6-3.2 3.3l-3.3 2.9 2.9-3.3c2.8-3 3.6-3.7 3.6-2.9zm-361.2 4.2c-.6 1.4-1.3 2.3-1.5 2.1-.5-.5 1.5-4.6 2.2-4.6.3 0-.1 1.1-.7 2.5zm353.2 4.8c0 .2-1 1.2-2.2 2.3l-2.3 1.9 1.9-2.3c1.8-2.1 2.6-2.7 2.6-1.9zM24 627c0 .5-.2 1-.4 1-.3 0-.8-.5-1.1-1-.3-.6-.1-1 .4-1 .6 0 1.1.4 1.1 1zm-2.3 4.2c-.3.8-.6.5-.6-.6-.1-1.1.2-1.7.5-1.3.3.3.4 1.2.1 1.9zm350.6 1.2c-1.5 1.9-3.5 3.7-4.3 4.1-.8.3.3-1.2 2.5-3.4 4.8-5 5.7-5.3 1.8-.7zm-354.6 9.8c-.3.8-.6.5-.6-.6-.1-1.1.2-1.7.5-1.3.3.3.4 1.2.1 1.9zm-2 7c-.3.8-.6.5-.6-.6-.1-1.1.2-1.7.5-1.3.3.3.4 1.2.1 1.9zm341.3.1c0 .2-1.5 1.6-3.2 3.3l-3.3 2.9 2.9-3.3c2.8-3 3.6-3.7 3.6-2.9zm-343.3 8.9c-.3.7-.5.2-.5-1.2s.2-1.9.5-1.3c.2.7.2 1.9 0 2.5zm337.3-1.8c0 .2-.7.9-1.5 1.6-1.3 1.1-1.4 1-.9-.4.5-1.4 2.4-2.3 2.4-1.2zm-74 5.8c2.5 4.2 2.6 11 .1 16.3-3.6 7.9-9.7 11-19.7 10.2-4.9-.4-7.1-1-8.9-2.7-1.4-1.3-2.2-2.7-1.9-3.1.3-.5 1.5 0 2.6 1.1 7 6.4 19.6 4.3 25.2-4.4 3-4.6 3.6-12.8 1.1-16-1.5-1.9-2-4.6-1-4.6.3 0 1.4 1.5 2.5 3.2zm-266.3 7c-.3.7-.5.2-.5-1.2s.2-1.9.5-1.3c.2.7.2 1.9 0 2.5zm330.3-1.9c0 .2-1.7 1.9-3.7 3.8l-3.8 3.4 3.4-3.8c3.3-3.4 4.1-4.2 4.1-3.4zM9.7 675.7c-.3 1-.5.4-.5-1.2 0-1.7.2-2.4.5-1.8.2.7.2 2.1 0 3zm323.3.6c0 .2-1.4 1.6-3.2 3.3l-3.2 2.9 2.5-3.2c2-2.7 3.9-4.1 3.9-3zM8.7 687.7c-.2 1.6-.4.3-.4-2.7s.2-4.3.4-2.8c.2 1.6.2 4 0 5.5zm313.8-.9c-4.4 4.2-4.4 3.8 0-1.1 1.7-1.8 3.2-3.2 3.5-3 .2.2-1.4 2-3.5 4.1zm-5.5 5.5c0 .2-1.2 1.4-2.7 2.8l-2.8 2.4 2.4-2.8c2.3-2.5 3.1-3.2 3.1-2.4zm-8 9c0 .2-1.2 1.4-2.7 2.8l-2.8 2.4 2.4-2.8c2.3-2.5 3.1-3.2 3.1-2.4zM8.7 714.7c-.2 1.6-.4.3-.4-2.7s.2-4.3.4-2.8c.2 1.6.2 4 0 5.5zm288.8-1.9-4.9 4.7 4.4-5.1c2.5-2.7 4.7-4.9 5-4.7.2.2-1.8 2.5-4.5 5.1zm-287.3 9.7c.3 1.3.1 2.2-.3 1.9-.9-.5-1.3-4.4-.5-4.4.2 0 .6 1.1.8 2.5zm267.8 9c-1.8 1.9-3.5 3.3-3.8 3.1-.4-.4 5.9-6.5 6.7-6.6.3 0-1 1.6-2.9 3.5zm-5 3.8c0 .2-1.7 1.9-3.7 3.8l-3.8 3.4 3.4-3.8c3.3-3.4 4.1-4.2 4.1-3.4zM18.8 746.5c-.3.3-.9-.2-1.2-1.2-.6-1.4-.5-1.5.5-.6.7.7 1 1.5.7 1.8zm238.4 3.7c-.7.7-1.2.8-1.2.2 0-1.4 1.2-2.6 1.9-1.9.2.3-.1 1.1-.7 1.7zm-235.2.3c.7.9.8 1.5.2 1.5-.5 0-1.2-.7-1.6-1.5-.3-.8-.4-1.5-.2-1.5s.9.7 1.6 1.5zm229.2 4c-1.7 1.4-3.4 2.5-3.8 2.5-1.1 0 4.8-4.9 5.9-5 .5 0-.5 1.1-2.1 2.5zm-224.1 1.2c3.1 3.4 5 6.6 2.2 3.8-4.8-4.8-6.3-6.5-5.6-6.5.5 0 2 1.2 3.4 2.7zm218.9 2.1c0 .4-1.5 1.6-3.2 2.6l-3.3 1.8 3-2.6c3.4-2.8 3.5-2.9 3.5-1.8zm-209.5 7c-.3.3-1.6-.5-2.8-1.7l-2.2-2.3 2.8 1.7c1.5 1 2.5 2 2.2 2.3zm200.5-1.3c-1.4.8-2.9 1.4-3.5 1.4-.5 0 .1-.6 1.5-1.4 1.4-.8 3-1.4 3.5-1.4.6 0-.1.6-1.5 1.4zm-194.5 5.3c-.6.6-3.4-1.1-3.9-2.4-.4-1.1 0-1 1.8.3 1.3 1 2.3 1.9 2.1 2.1zm172.5 5.1c-.8.5-2.6 1.1-4 1.5-2.1.5-2 .3.5-.9 3.2-1.5 6-2 3.5-.6zM70 781c.8.5 1.1 1 .5 1-.5 0-1.7-.5-2.5-1s-1-1-.5-1c.6 0 1.7.5 2.5 1zm4.7 1.6c-.3.3-1.2.4-1.9.1-.8-.3-.5-.6.6-.6 1.1-.1 1.7.2 1.3.5zm108 3c-.3.3-1.2.4-1.9.1-.8-.3-.5-.6.6-.6 1.1-.1 1.7.2 1.3.5zm-94 1c-.3.3-1.2.4-1.9.1-.8-.3-.5-.6.6-.6 1.1-.1 1.7.2 1.3.5zm89 0c-.3.3-1.2.4-1.9.1-.8-.3-.5-.6.6-.6 1.1-.1 1.7.2 1.3.5zm-73 4c-.3.3-1.2.4-1.9.1-.8-.3-.5-.6.6-.6 1.1-.1 1.7.2 1.3.5zm7.1 1.1c-1 .2-2.6.2-3.5 0-1-.3-.2-.5 1.7-.5s2.7.2 1.8.5zm44 0c-1 .2-2.6.2-3.5 0-1-.3-.2-.5 1.7-.5s2.7.2 1.8.5zm-16 1c-4.3.2-11.3.2-15.5 0-4.3-.1-.8-.3 7.7-.3s12 .2 7.8.3z"/>
  <path d="M408.7 119c-.4 1.5.2 2.4 2.4 3.6 3.2 1.6 5.4 1 4.5-1.2-.3-.7 0-1.6.6-2 1.5-.9-1.1-2.4-4.3-2.4-1.8 0-2.8.6-3.2 2zM488.6 155.9c-.3.5-1.5.7-2.6.4-1.4-.4-2 0-2 1.1 0 .9-.4 1.6-1 1.6-1.5 0-1.2 1.2 1 3.8 1.3 1.6 2.5 2.1 4.2 1.7 1.9-.5 2.3-1.3 2.5-5 .1-4.2-.8-5.8-2.1-3.6zM377.1 143.9c-.9.6-1 2-.5 4.7 1.9 10.6 10.9 20.7 21.6 24.3 4.7 1.6 6.5 1.8 7.5.9 2.2-1.8 1.1-2.9-5-4.8-3.2-1-7.3-2.8-9.1-4.1-4.6-3.1-9.7-10.9-10.3-15.8-.6-4.5-2.2-6.4-4.2-5.2zM348 172c0 .5.5 1 1.1 1 .5 0 .7-.5.4-1-.3-.6-.8-1-1.1-1-.2 0-.4.4-.4 1zM465 218.4c0 .2.7.7 1.6 1 .8.3 1.2.2.9-.4-.6-1-2.5-1.4-2.5-.6zM535.8 768.7c.6.2 1.8.2 2.5 0 .6-.3.1-.5-1.3-.5-1.4 0-1.9.2-1.2.5z"/>
</svg>
